<svg width="16" height="16" viewBox="0 0 16 16" fill="none" xmlns="http://www.w3.org/2000/svg">
<path fill-rule="evenodd" clip-rule="evenodd" d="M6.18 1.03003H14.37C14.72 1.03003 15 1.31003 15 1.66003V2.32003C15 5.17003 12.67 7.50003 9.82 7.50003H1.63C1.28 7.50003 1 7.22003 1 6.87003V6.21003C1 3.36003 3.33 1.03003 6.18 1.03003V1.03003Z" stroke="context-fill" stroke-width="1.22" stroke-miterlimit="22.9256"/>
<path fill-rule="evenodd" clip-rule="evenodd" d="M6.18 8.5H14.37C14.72 8.5 15 8.78 15 9.13V9.79C15 12.64 12.67 14.97 9.82 14.97H1.63C1.28 14.97 1 14.69 1 14.34V13.68C1 10.83 3.33 8.5 6.18 8.5V8.5Z" stroke="context-fill" stroke-width="1.22" stroke-miterlimit="22.9256"/>
</svg>
